{"title":"Final Destination 5 2011 V2 TS XViD DTRG","uid":6612971,"size":1156792375,"categoryP":"video","categoryS":"movies","magnet":"?xt=urn:btih:ef4ad74945d7455502b6bbfcab65e40312c77212&amp;dn=Final+Destination+5+2011+V2+TS+XViD+DTRG&amp;tr=udp%3A%2F%2Ftracker.openbittorrent.com%3A80&amp;tr=udp%3A%2F%2Fopen.demonii.com%3A1337&amp;tr=udp%3A%2F%2Ftracker.coppersurfer.tk%3A6969&amp;tr=udp%3A%2F%2Fexodus.desync.com%3A6969","seeders":1,"leechers":0,"uploader":"SAFCukO09","files":4,"time":1313661441,"description":"Format : AVI\nFormat/Info : Audio Video Interleave\nFile size : 1.07 GiB\nDuration : 1h 27mn\nOverall bit rate : 1 754 Kbps\nWriting library : VirtualDub build 32842/release\n\nVideo\nID : 0\nFormat : MPEG-4 Visual\nFormat profile : Advanced Simple@L5\nFormat settings, BVOP : 2\nFormat settings, QPel : No\nFormat settings, GMC : No warppoints\nFormat settings, Matrix : Default (H.263)\nMuxing mode : Packed bitstream\nCodec ID : XVID\nCodec ID/Hint : XviD\nDuration : 1h 27mn\nBit rate : 1 618 Kbps\nWidth : 672 pixels\nHeight : 358 pixels\nDisplay aspect ratio : 1.877\nFrame rate : 23.976 fps\nColor space : YUV\nChroma subsampling : 4:2:0\nBit depth : 8 bits\nScan type : Progressive\nCompression mode : Lossy\nBits/(Pixel*Frame) : 0.281\nStream size : 1 008 MiB (92%)\nWriting library : XviD 64\n\nAudio\nID : 1\nFormat : MPEG Audio\nFormat version : Version 1\nFormat profile : Layer 3\nCodec ID : 55\nCodec ID/Hint : MP3\nDuration : 1h 25mn\nBit rate mode : Constant\nBit rate : 128 Kbps\nChannel(s) : 2 channels\nSampling rate : 44.1 KHz\nCompression mode : Lossy\nStream size : 78.6 MiB (7%)\nAlignment : Split accross interleaves\nInterleave, duration : 42 ms (1.01 video frame)\nInterleave, preload duration : 500 ms\nWriting library : LAME3.98.4\n\n\n\n\n\n &lt;a href=&quot;\nhttp://www.imdb.com/title/tt1622979/&quot; rel=&quot;nofollow&quot; target=&quot;_NEW&quot;&gt;\nhttp://www.imdb.com/title/tt1622979/&lt;/a&gt;\n\n\n\n\n\n\n\n\n\nUsers: (683 votes) 42 reviews | Critics: 3 reviews Metascore: 51/100 (based on 21 reviews from Metacritic.com)\n\n\nSurvivors of a suspension-bridge collapse learn there's no way you can cheat Death.\n\nDirector: Steven Quale\nWriters: Eric Heisserer, Jeffrey Reddick (characters)\nStars: Nicholas D'Agosto, Emma Bell and Arlen Escarpeta\n\n\n\n\n\n\n\n\n &lt;a href=&quot;\nhttp://www.leetleech.org/images/80294034796783525458.png&quot; rel=&quot;nofollow&quot; target=&quot;_NEW&quot;&gt;\nhttp://www.leetleech.org/images/80294034796783525458.png&lt;/a&gt;\n\n &lt;a href=&quot;\nhttp://www.leetleech.org/images/94625116413548072331.png&quot; rel=&quot;nofollow&quot; target=&quot;_NEW&quot;&gt;\nhttp://www.leetleech.org/images/94625116413548072331.png&lt;/a&gt;\n\n\n\n\n\n\n\n\n\nSource Used\n\n\nVideo HP..............Thanks\n\nAudio IMAGiNE ..............Thanks\n\n\n\nWell decided to do a v2 of this to give another option.........Last source was cropped to the top ...better vid quality.This one is cropped at the sides so either vid you lost something\n\nColours on this were bad....way too much red ..so toned that down some altering all the rgb colours then dropping the saturation.Used the levels filter as well and a slight sharpen\n\nIf you notice any/many oos then sue me lol im no syncer ...\n\nSample included so check it out 1st\n\nEnjoy\n\n\n\n\n\nGreetz to IMAGiNE,Flawl3ss,DiLLoN,BDK,NOiR,TOXiC,THC,Ez,Rx,Boobyblue,TaRiQ786\n","torrent":{"xt":"urn:btih:ef4ad74945d7455502b6bbfcab65e40312c77212","amp;dn":"Final+Destination+5+2011+V2+TS+XViD+DTRG","amp;tr":["udp%3A%2F%2Ftracker.openbittorrent.com%3A80","udp%3A%2F%2Fopen.demonii.com%3A1337","udp%3A%2F%2Ftracker.coppersurfer.tk%3A6969","udp%3A%2F%2Fexodus.desync.com%3A6969"],"infoHash":"ef4ad74945d7455502b6bbfcab65e40312c77212","infoHashBuffer":{"type":"Buffer","data":[239,74,215,73,69,215,69,85,2,182,187,252,171,101,228,3,18,199,114,18]},"announce":[],"urlList":[]}}